<svg xmlns="http://www.w3.org/2000/svg" viewBox="0 0 1333 290" width="1333" height="290">
<g transform="translate(40,40) scale(0.410156)"><rect width="512" height="512" rx="116" fill="#FFFFFF"/>
<path transform="translate(27.92,344.75) scale(0.122070,-0.122070)" d="M903 -279Q792 -279 694.0 -267.5Q596 -256 521.5 -216.5Q447 -177 405.0 -93.5Q363 -10 363 134V286Q363 392 317.0 443.0Q271 494 156 497H139V805H156Q271 808 317.0 858.5Q363 909 363 1015V1168Q363 1312 405.0 1395.5Q447 1479 521.5 1518.5Q596 1558 694.0 1569.5Q792 1581 903 1581V1323Q773 1323 730.0 1275.5Q687 1228 687 1128V937Q687 884 668.0 831.0Q649 778 596.0 734.0Q543 690 440 663V639Q543 612 596.0 567.5Q649 523 668.0 470.0Q687 417 687 364V174Q687 74 729.5 26.5Q772 -21 903 -21Z" fill="#0891B2"/>
<path d="M 173.5 242.0 L 256.0 197.4 L 338.5 242.0 L 256.0 286.6 Z" fill="#0F2747"/>
<path d="M 218.1 260.7 Q 256.0 294.1 293.9 260.7 L 293.9 293.7 Q 256.0 327.1 218.1 293.7 Z" fill="#0F2747"/>
<circle cx="256.0" cy="235.3" r="7.4" fill="#F2A93B"/>
<path d="M 256.0 235.3 Q 317.9 237.5 331.9 308.8" stroke="#F2A93B" stroke-width="8.2" fill="none" stroke-linecap="round"/>
<circle cx="331.9" cy="317.1" r="12.4" fill="#F2A93B"/>
<path transform="translate(338.50,344.75) scale(0.122070,-0.122070)" d="M93 -279V-21Q224 -21 266.5 26.5Q309 74 309 174V364Q309 417 328.0 470.0Q347 523 400.0 567.5Q453 612 556 639V663Q453 690 400.0 734.0Q347 778 328.0 831.0Q309 884 309 937V1128Q309 1228 266.5 1275.5Q224 1323 93 1323V1581Q205 1581 302.5 1569.5Q400 1558 474.5 1518.5Q549 1479 591.0 1395.5Q633 1312 633 1168V1015Q633 906 682.0 855.5Q731 805 856 805H857V497Q732 497 682.5 446.5Q633 396 633 286V134Q633 -10 591.0 -93.5Q549 -177 474.5 -216.5Q400 -256 302.5 -267.5Q205 -279 93 -279Z" fill="#0891B2"/></g>
<g transform="translate(302.00,49.00)"><path transform="translate(0.00,150.00) scale(0.073242,-0.073242)" d="M785 -20Q589 -20 435.0 71.0Q281 162 192.0 333.0Q103 504 103 744Q103 985 192.5 1156.5Q282 1328 436.0 1419.0Q590 1510 785 1510Q948 1510 1081.5 1449.0Q1215 1388 1302.0 1272.5Q1389 1157 1413 994H1144Q1119 1126 1021.0 1198.5Q923 1271 789 1271Q606 1271 488.5 1134.5Q371 998 371 744Q371 487 489.0 353.0Q607 219 788 219Q922 219 1020.5 291.5Q1119 364 1144 496H1414Q1393 353 1311.0 236.0Q1229 119 1095.0 49.5Q961 -20 785 -20Z" fill="#22D3EE"/>
<path transform="translate(110.52,150.00) scale(0.073242,-0.073242)" d="M623 -23Q460 -23 340.0 49.5Q220 122 154.5 251.5Q89 381 89 553Q89 727 154.5 857.5Q220 988 340.0 1060.0Q460 1132 623 1132Q786 1132 906.0 1060.0Q1026 988 1092.0 857.5Q1158 727 1158 553Q1158 381 1092.0 251.5Q1026 122 906.0 49.5Q786 -23 623 -23ZM623 188Q714 188 774.0 237.0Q834 286 864.0 369.0Q894 452 894 554Q894 657 864.0 740.0Q834 823 774.0 872.0Q714 921 623 921Q533 921 473.0 872.0Q413 823 383.5 740.0Q354 657 354 554Q354 452 383.5 369.0Q413 286 473.0 237.0Q533 188 623 188Z" fill="#22D3EE"/>
<path transform="translate(201.86,150.00) scale(0.073242,-0.073242)" d="M550 -20Q418 -20 313.5 47.5Q209 115 149.0 244.0Q89 373 89 557Q89 743 150.0 871.5Q211 1000 315.5 1066.0Q420 1132 549 1132Q649 1132 712.5 1098.5Q776 1065 813.0 1018.5Q850 972 870 933H881V1490H1141V0H886V177H870Q849 137 811.0 91.0Q773 45 709.5 12.5Q646 -20 550 -20ZM621 194Q748 194 817.0 294.5Q886 395 886 558Q886 721 817.5 819.5Q749 918 621 918Q489 918 422.0 816.0Q355 714 355 558Q355 401 422.5 297.5Q490 194 621 194Z" fill="#22D3EE"/>
<path transform="translate(295.46,150.00) scale(0.073242,-0.073242)" d="M632 -23Q463 -23 341.5 48.0Q220 119 154.5 248.0Q89 377 89 552Q89 724 153.5 854.5Q218 985 336.5 1058.5Q455 1132 615 1132Q751 1132 867.5 1072.5Q984 1013 1055.0 888.5Q1126 764 1126 568V486H348Q353 337 431.5 259.0Q510 181 635 181Q721 181 782.5 218.0Q844 255 870 326L1109 277Q1069 142 943.5 59.5Q818 -23 632 -23ZM349 663H873Q861 783 796.5 855.5Q732 928 616 928Q497 928 427.5 851.5Q358 775 349 663Z" fill="#22D3EE"/>
<path transform="translate(387.16,150.00) scale(0.073242,-0.073242)" d="M787 -20Q586 -20 426.5 69.0Q267 158 174.5 328.5Q82 499 82 744Q82 990 175.5 1161.0Q269 1332 429.0 1421.0Q589 1510 787 1510Q964 1510 1105.0 1446.0Q1246 1382 1335.0 1260.0Q1424 1138 1445 964H1088Q1071 1073 993.5 1136.5Q916 1200 796 1200Q632 1200 537.5 1080.5Q443 961 443 744Q443 520 538.0 405.0Q633 290 794 290Q914 290 992.0 353.5Q1070 417 1089 526H1446Q1436 426 1388.5 329.0Q1341 232 1258.0 153.0Q1175 74 1057.0 27.0Q939 -20 787 -20Z" fill="#FFFFFF"/>
<path transform="translate(498.70,150.00) scale(0.073242,-0.073242)" d="M115 0V1118H464V0ZM289 1249Q215 1249 162.0 1298.0Q109 1347 109 1417Q109 1487 162.0 1536.0Q215 1585 289 1585Q364 1585 417.0 1536.0Q470 1487 470 1417Q470 1347 417.0 1298.0Q364 1249 289 1249Z" fill="#FFFFFF"/>
<path transform="translate(541.18,150.00) scale(0.073242,-0.073242)" d="M115 0V1490H464V714H480L800 1118H1197L798 630L1213 0H810L538 427L464 339V0Z" fill="#FFFFFF"/>
<path transform="translate(630.10,150.00) scale(0.073242,-0.073242)" d="M630 -442Q411 -442 276.0 -361.0Q141 -280 111 -149L414 -87Q429 -132 481.5 -165.5Q534 -199 628 -199Q735 -199 792.5 -151.0Q850 -103 850 -3V195H823Q792 119 718.5 67.0Q645 15 520 15Q397 15 295.5 72.5Q194 130 133.0 250.5Q72 371 72 559Q72 755 134.5 882.0Q197 1009 299.0 1070.5Q401 1132 519 1132Q652 1132 729.5 1067.0Q807 1002 839 926H849V1118H1194V25Q1194 -129 1122.5 -233.0Q1051 -337 924.0 -389.5Q797 -442 630 -442ZM639 271Q739 271 794.5 347.5Q850 424 850 560Q850 698 795.0 778.5Q740 859 639 859Q538 859 484.5 777.0Q431 695 431 560Q431 425 485.0 348.0Q539 271 639 271Z" fill="#FFFFFF"/>
<path transform="translate(725.97,150.00) scale(0.073242,-0.073242)" d="M503 -14Q327 -14 221.0 101.0Q115 216 115 406V1118H464V474Q464 380 512.5 326.5Q561 273 646 273Q732 273 784.5 327.5Q837 382 837 480V1118H1186V0H858L853 242Q808 125 723.0 55.5Q638 -14 503 -14Z" fill="#FFFFFF"/>
<path transform="translate(828.76,150.00) scale(0.032959,-0.032959)" d="M326 -17Q259 -17 212.5 29.0Q166 75 166 143Q166 210 212.5 256.0Q259 302 326 302Q394 302 440.5 256.0Q487 210 487 143Q487 75 440.5 29.0Q394 -17 326 -17Z" fill="#F2A93B"/>
<path transform="translate(850.28,150.00) scale(0.032959,-0.032959)" d="M623 -23Q460 -23 340.0 49.5Q220 122 154.5 251.5Q89 381 89 553Q89 727 154.5 857.5Q220 988 340.0 1060.0Q460 1132 623 1132Q810 1132 939.5 1038.5Q1069 945 1105 781L862 730Q841 817 780.0 869.0Q719 921 625 921Q489 921 421.5 816.0Q354 711 354 554Q354 451 384.0 368.0Q414 285 474.0 236.5Q534 188 625 188Q721 188 782.5 242.5Q844 297 865 387L1108 336Q1072 169 942.0 73.0Q812 -23 623 -23Z" fill="#F2A93B"/>
<path transform="translate(889.60,150.00) scale(0.032959,-0.032959)" d="M623 -23Q460 -23 340.0 49.5Q220 122 154.5 251.5Q89 381 89 553Q89 727 154.5 857.5Q220 988 340.0 1060.0Q460 1132 623 1132Q786 1132 906.0 1060.0Q1026 988 1092.0 857.5Q1158 727 1158 553Q1158 381 1092.0 251.5Q1026 122 906.0 49.5Q786 -23 623 -23ZM623 188Q714 188 774.0 237.0Q834 286 864.0 369.0Q894 452 894 554Q894 657 864.0 740.0Q834 823 774.0 872.0Q714 921 623 921Q533 921 473.0 872.0Q413 823 383.5 740.0Q354 657 354 554Q354 452 383.5 369.0Q413 286 473.0 237.0Q533 188 623 188Z" fill="#F2A93B"/>
<path transform="translate(930.70,150.00) scale(0.032959,-0.032959)" d="M138 0V1118H382L390 905Q434 1024 520.5 1080.0Q607 1136 707 1136Q921 1136 994 893Q1039 1014 1136.0 1075.0Q1233 1136 1351 1136Q1502 1136 1604.0 1038.0Q1706 940 1706 754V0H1446V714Q1446 818 1389.0 866.0Q1332 914 1252 914Q1157 914 1103.0 855.0Q1049 796 1049 702V0H795V726Q795 811 742.0 862.5Q689 914 606 914Q520 914 459.0 855.5Q398 797 398 685V0Z" fill="#F2A93B"/></g>
</svg>