<svg xmlns="http://www.w3.org/2000/svg" viewBox="0 0 1313 290" width="1313" height="290">
<g transform="translate(40,40) scale(0.410156)"><path d="M 168 118 H 298 L 362 182 V 376 Q 362 394 344 394 H 168 Q 150 394 150 376 V 136 Q 150 118 168 118 Z" fill="#FFFFFF"/>
<path d="M 298 118 L 362 182 H 298 Z" fill="#F2A93B"/>
<rect x="184" y="196" width="112" height="22" rx="11" fill="#0F2747"/>
<rect x="184" y="248" width="144" height="22" rx="11" fill="#0F2747"/>
<rect x="184" y="312" width="76" height="26" rx="13" fill="#F2A93B"/></g>
<g transform="translate(306.00,49.00)"><path transform="translate(0.00,150.00) scale(0.073242,-0.073242)" d="M393 1490V0H165V1490Z" fill="#FFFFFF"/>
<path transform="translate(40.87,150.00) scale(0.073242,-0.073242)" d="M368 662V0H148V1118H358L359 903Q411 1021 498.5 1076.5Q586 1132 704 1132Q875 1132 979.5 1024.5Q1084 917 1084 710V0H864V683Q864 804 801.0 872.0Q738 940 628 940Q516 940 442.0 867.5Q368 795 368 662Z" fill="#FFFFFF"/>
<path transform="translate(131.10,150.00) scale(0.073242,-0.073242)" d="M468 0 46 1118H284L505 483Q531 409 551.0 335.5Q571 262 590 188Q608 261 628.0 335.0Q648 409 673 483L894 1118H1130L708 0Z" fill="#FFFFFF"/>
<path transform="translate(217.31,150.00) scale(0.073242,-0.073242)" d="M618 -23Q461 -23 343.5 49.0Q226 121 161.0 250.5Q96 380 96 553Q96 727 161.0 857.5Q226 988 343.5 1060.0Q461 1132 618 1132Q776 1132 893.5 1060.0Q1011 988 1076.0 857.5Q1141 727 1141 553Q1141 380 1076.0 250.5Q1011 121 893.5 49.0Q776 -23 618 -23ZM618 163Q720 163 786.5 216.5Q853 270 885.5 358.5Q918 447 918 553Q918 660 885.5 749.5Q853 839 786.5 892.5Q720 946 618 946Q517 946 451.0 892.5Q385 839 352.5 749.5Q320 660 320 553Q320 447 352.5 358.5Q385 270 451.0 216.5Q517 163 618 163Z" fill="#FFFFFF"/>
<path transform="translate(307.91,150.00) scale(0.073242,-0.073242)" d="M148 0V1118H368V0ZM259 1289Q202 1289 161.5 1327.0Q121 1365 121 1419Q121 1474 161.5 1512.0Q202 1550 259 1550Q316 1550 357.0 1512.0Q398 1474 398 1419Q398 1365 357.0 1327.0Q316 1289 259 1289Z" fill="#FFFFFF"/>
<path transform="translate(345.70,150.00) scale(0.073242,-0.073242)" d="M618 -23Q460 -23 343.0 49.0Q226 121 161.0 250.5Q96 380 96 553Q96 727 161.0 857.5Q226 988 343.0 1060.0Q460 1132 618 1132Q792 1132 918.5 1044.5Q1045 957 1086 802L877 752Q854 839 787.5 892.5Q721 946 619 946Q518 946 451.5 893.0Q385 840 352.5 750.5Q320 661 320 553Q320 446 352.5 357.5Q385 269 451.5 216.0Q518 163 619 163Q723 163 791.0 218.5Q859 274 881 365L1089 315Q1048 157 921.0 67.0Q794 -23 618 -23Z" fill="#FFFFFF"/>
<path transform="translate(432.28,150.00) scale(0.073242,-0.073242)" d="M630 -23Q465 -23 345.0 48.0Q225 119 160.5 248.0Q96 377 96 551Q96 723 159.5 854.0Q223 985 339.0 1058.5Q455 1132 611 1132Q738 1132 852.5 1075.5Q967 1019 1038.5 895.5Q1110 772 1110 570V492H317Q323 330 409.0 244.5Q495 159 632 159Q724 159 790.5 199.0Q857 239 886 317L1093 268Q1053 137 931.0 57.0Q809 -23 630 -23ZM318 656H892Q880 788 809.5 869.0Q739 950 612 950Q480 950 403.5 863.5Q327 777 318 656Z" fill="#FFFFFF"/>
<path transform="translate(523.39,150.00) scale(0.073242,-0.073242)" d="M116 0V1490H469V1124L463 764Q507 840 559.0 914.5Q611 989 686 1083L1018 1490H1442L902 847L1463 0H1048L659 615L469 400V0Z" fill="#FFFFFF"/>
<path transform="translate(634.13,150.00) scale(0.073242,-0.073242)" d="M115 0V1118H464V0ZM289 1249Q215 1249 162.0 1298.0Q109 1347 109 1417Q109 1487 162.0 1536.0Q215 1585 289 1585Q364 1585 417.0 1536.0Q470 1487 470 1417Q470 1347 417.0 1298.0Q364 1249 289 1249Z" fill="#FFFFFF"/>
<path transform="translate(676.61,150.00) scale(0.073242,-0.073242)" d="M718 1118V859H517V342Q517 255 606 255Q624 255 656.5 259.5Q689 264 703 267L748 13Q689 -4 634.0 -10.0Q579 -16 530 -16Q352 -16 260.0 67.5Q168 151 168 311V859H20V1118H168V1384H517V1118Z" fill="#FFFFFF"/>
<path transform="translate(733.88,150.00) scale(0.073242,-0.073242)" d="M428 -20Q267 -20 163.5 62.0Q60 144 60 310Q60 434 117.0 507.0Q174 580 268.5 615.0Q363 650 476 660Q618 672 679.5 689.5Q741 707 741 759V763Q741 821 700.5 852.5Q660 884 589 884Q516 884 469.0 853.0Q422 822 408 769L92 810Q125 953 253.5 1042.5Q382 1132 592 1132Q731 1132 843.5 1089.0Q956 1046 1022.5 962.5Q1089 879 1089 759V0H761V157H752Q659 -20 428 -20ZM534 211Q622 211 683.0 263.0Q744 315 744 398V505Q714 489 657.0 478.0Q600 467 551 459Q390 435 390 326Q390 270 430.5 240.5Q471 211 534 211Z" fill="#FFFFFF"/>
<path transform="translate(831.14,150.00) scale(0.036621,-0.036621)" d="M326 -17Q259 -17 212.5 29.0Q166 75 166 143Q166 210 212.5 256.0Q259 302 326 302Q394 302 440.5 256.0Q487 210 487 143Q487 75 440.5 29.0Q394 -17 326 -17Z" fill="#F2A93B"/>
<path transform="translate(855.05,150.00) scale(0.036621,-0.036621)" d="M138 0V1118H382L390 905Q434 1024 520.5 1080.0Q607 1136 707 1136Q921 1136 994 893Q1039 1014 1136.0 1075.0Q1233 1136 1351 1136Q1502 1136 1604.0 1038.0Q1706 940 1706 754V0H1446V714Q1446 818 1389.0 866.0Q1332 914 1252 914Q1157 914 1103.0 855.0Q1049 796 1049 702V0H795V726Q795 811 742.0 862.5Q689 914 606 914Q520 914 459.0 855.5Q398 797 398 685V0Z" fill="#F2A93B"/>
<path transform="translate(922.58,150.00) scale(0.036621,-0.036621)" d="M127 -399 188 -196 219 -204Q307 -228 366.0 -199.5Q425 -171 445 -75L461 -4L39 1118H317L521 510Q545 437 563.0 364.5Q581 292 597 219Q616 293 635.5 365.5Q655 438 680 510L891 1118H1166L686 -144Q635 -278 544.0 -352.0Q453 -426 301 -426Q246 -426 199.5 -418.0Q153 -410 127 -399Z" fill="#F2A93B"/></g>
</svg>