<svg xmlns="http://www.w3.org/2000/svg" viewBox="0 0 1076 290" width="1076" height="290">
<g transform="translate(40,40) scale(0.410156)"><rect width="512" height="512" rx="116" fill="#FFFFFF"/>
<path transform="translate(22.91,346.00) scale(0.122070,-0.122070)" d="M47 0 544 1490H1017L1529 0H1133L1032 317H536L439 0ZM619 587H946L926 651Q887 779 850.0 919.0Q813 1059 777 1209Q743 1058 709.5 918.0Q676 778 639 651Z" fill="#0F172A"/>
<path d="M 216.6 363.5 L 245.3 363.5 L 322.7 148.5 L 294.0 148.5 Z" fill="#06B6D4"/>
<path transform="translate(324.05,346.00) scale(0.122070,-0.122070)" d="M691 -20Q411 -20 243.5 107.0Q76 234 72 492H411Q417 383 491.5 328.0Q566 273 687 273Q797 273 860.0 317.5Q923 362 923 433Q923 497 863.5 534.5Q804 572 682 600L524 637Q331 681 221.0 781.0Q111 881 111 1049Q111 1187 185.5 1290.5Q260 1394 391.0 1452.0Q522 1510 691 1510Q864 1510 991.0 1451.5Q1118 1393 1188.0 1288.5Q1258 1184 1260 1046H921Q914 1127 855.0 1172.0Q796 1217 690 1217Q584 1217 530.0 1176.0Q476 1135 476 1073Q476 1004 536.0 966.5Q596 929 696 907L825 877Q1041 829 1160.5 720.0Q1280 611 1280 432Q1280 220 1124.0 100.0Q968 -20 691 -20Z" fill="#0F172A"/></g>
<path transform="translate(302.00,149.20) scale(0.073242,-0.073242)" d="M47 0 544 1490H1017L1529 0H1133L1032 317H536L439 0ZM619 587H946L926 651Q887 779 850.0 919.0Q813 1059 777 1209Q743 1058 709.5 918.0Q676 778 639 651Z" fill="#FFFFFF"/>
<path transform="translate(417.43,149.20) scale(0.073242,-0.073242)" d="M520 -16Q396 -16 294.0 48.5Q192 113 132.0 240.5Q72 368 72 558Q72 754 134.5 881.0Q197 1008 298.5 1070.0Q400 1132 517 1132Q606 1132 669.0 1101.5Q732 1071 772.5 1023.5Q813 976 834 926H842V1490H1190V0H846V181H834Q801 105 724.5 44.5Q648 -16 520 -16ZM639 256Q738 256 794.0 338.5Q850 421 850 558Q850 697 794.5 778.0Q739 859 639 859Q538 859 484.5 776.5Q431 694 431 558Q431 422 484.5 339.0Q538 256 639 256Z" fill="#FFFFFF"/>
<path transform="translate(513.08,149.20) scale(0.073242,-0.073242)" d="M428 -20Q267 -20 163.5 62.0Q60 144 60 310Q60 434 117.0 507.0Q174 580 268.5 615.0Q363 650 476 660Q618 672 679.5 689.5Q741 707 741 759V763Q741 821 700.5 852.5Q660 884 589 884Q516 884 469.0 853.0Q422 822 408 769L92 810Q125 953 253.5 1042.5Q382 1132 592 1132Q731 1132 843.5 1089.0Q956 1046 1022.5 962.5Q1089 879 1089 759V0H761V157H752Q659 -20 428 -20ZM534 211Q622 211 683.0 263.0Q744 315 744 398V505Q714 489 657.0 478.0Q600 467 551 459Q390 435 390 326Q390 270 430.5 240.5Q471 211 534 211Z" fill="#FFFFFF"/>
<path transform="translate(601.34,149.20) scale(0.073242,-0.073242)" d="M115 0V1118H436L452 896Q498 1022 585.5 1077.5Q673 1133 774 1133Q880 1133 950.5 1072.0Q1021 1011 1062 874Q1113 1012 1212.5 1072.5Q1312 1133 1425 1133Q1582 1133 1682.5 1032.0Q1783 931 1783 754V0H1435V675Q1435 760 1390.5 804.0Q1346 848 1277 848Q1203 848 1160.0 799.5Q1117 751 1117 671V0H782V680Q782 757 738.5 802.5Q695 848 626 848Q555 848 509.5 800.0Q464 752 464 664V0Z" fill="#FFFFFF"/>
<path transform="translate(740.43,149.20) scale(0.073242,-0.073242)" d="M691 -20Q411 -20 243.5 107.0Q76 234 72 492H411Q417 383 491.5 328.0Q566 273 687 273Q797 273 860.0 317.5Q923 362 923 433Q923 497 863.5 534.5Q804 572 682 600L524 637Q331 681 221.0 781.0Q111 881 111 1049Q111 1187 185.5 1290.5Q260 1394 391.0 1452.0Q522 1510 691 1510Q864 1510 991.0 1451.5Q1118 1393 1188.0 1288.5Q1258 1184 1260 1046H921Q914 1127 855.0 1172.0Q796 1217 690 1217Q584 1217 530.0 1176.0Q476 1135 476 1073Q476 1004 536.0 966.5Q596 929 696 907L825 877Q1041 829 1160.5 720.0Q1280 611 1280 432Q1280 220 1124.0 100.0Q968 -20 691 -20Z" fill="#FFFFFF"/>
<path transform="translate(839.45,149.20) scale(0.073242,-0.073242)" d="M634 -21Q459 -21 333.0 51.5Q207 124 139.5 253.5Q72 383 72 555Q72 727 139.5 857.0Q207 987 333.0 1059.5Q459 1132 634 1132Q809 1132 934.5 1059.5Q1060 987 1127.5 857.0Q1195 727 1195 555Q1195 383 1127.5 253.5Q1060 124 934.5 51.5Q809 -21 634 -21ZM634 246Q734 246 787.0 331.5Q840 417 840 557Q840 697 787.0 781.0Q734 865 634 865Q534 865 481.0 781.0Q428 697 428 557Q428 417 481.0 331.5Q534 246 634 246Z" fill="#FFFFFF"/>
<path transform="translate(932.32,149.20) scale(0.073242,-0.073242)" d="M779 1118V859H555V0H208V859H20V1118H208V1178Q208 1370 314.0 1465.0Q420 1560 588 1560Q662 1560 727.0 1548.5Q792 1537 823 1528L767 1273Q747 1278 720.0 1282.5Q693 1287 666 1287Q604 1287 579.5 1258.5Q555 1230 555 1181V1118Z" fill="#FFFFFF"/>
<path transform="translate(993.77,149.20) scale(0.073242,-0.073242)" d="M115 0V1118H464V0ZM289 1249Q215 1249 162.0 1298.0Q109 1347 109 1417Q109 1487 162.0 1536.0Q215 1585 289 1585Q364 1585 417.0 1536.0Q470 1487 470 1417Q470 1347 417.0 1298.0Q364 1249 289 1249Z" fill="#FFFFFF"/>
<path transform="translate(306.00,220.50) scale(0.022461,-0.022461)" d="M83 1265V1490H1269V1265H810V0H543V1265Z" fill="#94A3B8"/>
<path transform="translate(351.09,220.50) scale(0.022461,-0.022461)" d="M150 0V1490H1118V1265H417V863H1066V641H417V225H1122V0Z" fill="#94A3B8"/>
<path transform="translate(393.66,220.50) scale(0.022461,-0.022461)" d="M785 -20Q589 -20 435.0 71.0Q281 162 192.0 333.0Q103 504 103 744Q103 985 192.5 1156.5Q282 1328 436.0 1419.0Q590 1510 785 1510Q948 1510 1081.5 1449.0Q1215 1388 1302.0 1272.5Q1389 1157 1413 994H1144Q1119 1126 1021.0 1198.5Q923 1271 789 1271Q606 1271 488.5 1134.5Q371 998 371 744Q371 487 489.0 353.0Q607 219 788 219Q922 219 1020.5 291.5Q1119 364 1144 496H1414Q1393 353 1311.0 236.0Q1229 119 1095.0 49.5Q961 -20 785 -20Z" fill="#94A3B8"/>
<path transform="translate(442.27,220.50) scale(0.022461,-0.022461)" d="M150 0V1490H417V874H1110V1490H1377V0H1110V649H417V0Z" fill="#94A3B8"/>
<path transform="translate(491.29,220.50) scale(0.022461,-0.022461)" d="M150 0V1490H452L967 669Q1007 605 1054.0 519.5Q1101 434 1150 322Q1142 430 1138.0 535.0Q1134 640 1134 708V1490H1405V0H1102L637 739Q598 801 563.5 862.0Q529 923 491.0 995.0Q453 1067 403 1164Q410 1026 416.0 914.0Q422 802 422 740V0Z" fill="#94A3B8"/>
<path transform="translate(540.94,220.50) scale(0.022461,-0.022461)" d="M788 -20Q592 -20 437.5 71.0Q283 162 193.0 333.0Q103 504 103 744Q103 985 193.0 1156.5Q283 1328 437.5 1419.0Q592 1510 788 1510Q983 1510 1137.5 1419.0Q1292 1328 1381.5 1156.5Q1471 985 1471 744Q1471 503 1381.5 332.5Q1292 162 1137.5 71.0Q983 -20 788 -20ZM788 219Q970 219 1086.0 354.0Q1202 489 1202 744Q1202 1000 1086.0 1135.5Q970 1271 788 1271Q605 1271 488.0 1135.5Q371 1000 371 744Q371 490 488.0 354.5Q605 219 788 219Z" fill="#94A3B8"/>
<path transform="translate(591.01,220.50) scale(0.022461,-0.022461)" d="M150 0V1490H417V225H1075V0Z" fill="#94A3B8"/>
<path transform="translate(631.74,220.50) scale(0.022461,-0.022461)" d="M788 -20Q592 -20 437.5 71.0Q283 162 193.0 333.0Q103 504 103 744Q103 985 193.0 1156.5Q283 1328 437.5 1419.0Q592 1510 788 1510Q983 1510 1137.5 1419.0Q1292 1328 1381.5 1156.5Q1471 985 1471 744Q1471 503 1381.5 332.5Q1292 162 1137.5 71.0Q983 -20 788 -20ZM788 219Q970 219 1086.0 354.0Q1202 489 1202 744Q1202 1000 1086.0 1135.5Q970 1271 788 1271Q605 1271 488.0 1135.5Q371 1000 371 744Q371 490 488.0 354.5Q605 219 788 219Z" fill="#94A3B8"/>
<path transform="translate(681.81,220.50) scale(0.022461,-0.022461)" d="M793 -20Q587 -20 432.0 72.5Q277 165 190.0 336.5Q103 508 103 743Q103 983 192.5 1154.5Q282 1326 436.0 1418.0Q590 1510 785 1510Q949 1510 1082.5 1447.0Q1216 1384 1302.5 1272.0Q1389 1160 1412 1014H1139Q1103 1133 1013.5 1202.0Q924 1271 788 1271Q668 1271 573.5 1210.0Q479 1149 425.0 1031.5Q371 914 371 745Q371 492 488.5 355.5Q606 219 794 219Q962 219 1062.0 313.5Q1162 408 1166 569H822V779H1425V600Q1425 409 1343.5 269.5Q1262 130 1119.5 55.0Q977 -20 793 -20Z" fill="#94A3B8"/>
<path transform="translate(730.99,220.50) scale(0.022461,-0.022461)" d="M600 0V577L50 1490H362L628 1020Q659 965 685.0 913.5Q711 862 735 800Q760 864 785.5 915.5Q811 967 840 1020L1101 1490H1411L867 577V0Z" fill="#94A3B8"/>
</svg>